<svg xmlns="http://www.w3.org/2000/svg" width="526" height="517" fill="none" viewBox="0 0 526 517"><ellipse cx="262.667" cy="8.536" fill="#000" fill-opacity=".2" rx="8.548" ry="8.536"/><ellipse fill="#09D9B9" rx="8.547" ry="8.538" transform="matrix(0.93985 -0.341589 0.342452 0.939535 174.956 23.98)"/><ellipse fill="#000" fill-opacity=".2" rx="8.547" ry="8.538" transform="matrix(0.93985 -0.341589 0.342452 0.939535 350.377 505.259)"/><ellipse fill="#000" fill-opacity=".2" rx="8.543" ry="8.541" transform="matrix(0.766497 -0.642248 0.643327 0.765592 97.8248 68.4479)"/><ellipse fill="#09D9B9" rx="8.543" ry="8.541" transform="matrix(0.766497 -0.642248 0.643327 0.765592 427.509 460.79)"/><ellipse fill="#09D9B9" rx="8.539" ry="8.545" transform="matrix(0.500536 -0.865716 0.866335 0.499464 40.5749 136.578)"/><ellipse fill="#000" fill-opacity=".2" rx="8.539" ry="8.545" transform="matrix(0.500536 -0.865716 0.866335 0.499464 484.758 392.661)"/><ellipse cx="10.111" cy="220.153" fill="#000" fill-opacity=".2" rx="8.536" ry="8.548" transform="rotate(-80 10.1108 220.153)"/><ellipse fill="#09D9B9" rx="8.536" ry="8.548" transform="matrix(0.173889 -0.984765 0.98485 0.173408 515.22 309.087)"/><ellipse fill="#09D9B9" rx="8.536" ry="8.548" transform="matrix(-0.173889 -0.984765 0.98485 -0.173408 10.1131 309.087)"/><ellipse fill="#0E1C36" opacity=".2" rx="8.536" ry="8.548" transform="matrix(-0.173889 -0.984765 0.98485 -0.173408 515.22 220.151)"/><ellipse fill="#000" fill-opacity=".2" rx="8.539" ry="8.545" transform="matrix(-0.500536 -0.865716 0.866335 -0.499464 40.5747 392.66)"/><ellipse fill="#09D9B9" rx="8.539" ry="8.545" transform="matrix(-0.500536 -0.865716 0.866335 -0.499464 484.758 136.578)"/><ellipse fill="#09D9B9" rx="8.543" ry="8.541" transform="matrix(-0.766497 -0.642248 0.643327 -0.765592 97.8241 460.79)"/><ellipse fill="#000" fill-opacity=".2" rx="8.543" ry="8.541" transform="matrix(-0.766497 -0.642248 0.643327 -0.765592 427.509 68.4482)"/><ellipse fill="#09D9B9" rx="8.547" ry="8.538" transform="matrix(-0.93985 -0.341589 0.342452 -0.939535 350.377 23.9796)"/></svg>