<svg xmlns="http://www.w3.org/2000/svg" width="345" height="330" fill="none" viewBox="0 0 345 330"><rect width="224" height="224" x="60" y="53" fill="#fff" stroke="#EAFAEF" stroke-width="10" rx="112"/><circle cx="114.169" cy="9.951" r="7" fill="#09D9B9" transform="rotate(-20 114.169 9.95074)"/><circle cx="227.036" cy="320.049" r="7" fill="#09D9B9" transform="rotate(-20 227.036 320.049)"/><circle cx="64.543" cy="38.603" r="7" fill="#09D9B9" transform="rotate(-40 64.5425 38.6027)"/><circle cx="276.662" cy="291.397" r="7" fill="#09D9B9" transform="rotate(-40 276.662 291.397)"/><circle cx="27.708" cy="82.5" r="7" fill="#09D9B9" transform="rotate(-60 27.7083 82.5)"/><circle cx="313.497" cy="247.5" r="7" fill="#09D9B9" transform="rotate(-60 313.497 247.5)"/><circle cx="8.109" cy="136.348" r="7" fill="#09D9B9" transform="rotate(-80 8.10919 136.348)"/><circle cx="333.096" cy="193.652" r="7" fill="#09D9B9" transform="rotate(-80 333.096 193.652)"/><circle cx="8.109" cy="193.652" r="7" fill="#09D9B9" transform="rotate(-100 8.10921 193.652)"/><circle cx="333.096" cy="136.348" r="8.5" fill="#09D9B9" stroke="#fff" stroke-width="3" transform="rotate(-100 333.096 136.348)"/><circle cx="27.708" cy="247.5" r="7" fill="#09D9B9" transform="rotate(-120 27.7083 247.5)"/><circle cx="313.497" cy="82.5" r="7" fill="#09D9B9" transform="rotate(-120 313.497 82.5001)"/></svg>